<svg width="312" height="400" viewBox="0 0 312 400" fill="none" xmlns="http://www.w3.org/2000/svg">
<path d="M29.5264 26.5359V89.5377C29.5264 93.8912 33.0363 97.4211 37.3713 97.4211H119.698C120.758 97.4211 121.806 97.1988 122.788 96.7805L190.459 79.4091C191.442 78.9908 192.489 78.7685 193.55 78.7685H272.629C276.964 78.7685 280.474 75.2386 280.474 70.8851V7.88339C280.474 3.52988 276.964 0 272.629 0H193.55C192.489 0 191.442 0.222251 190.459 0.640607L122.788 18.0119C121.806 18.4303 120.758 18.6525 119.698 18.6525H37.3713C33.0363 18.6525 29.5264 22.1824 29.5264 26.5359Z" fill="black"/>
<path d="M274.03 290.571C278.365 290.571 281.875 287.041 281.875 282.688V219.686C281.875 215.333 278.365 211.803 274.03 211.803H37.3713C33.0363 211.803 29.5264 215.333 29.5264 219.686V282.688C29.5264 287.041 33.0363 290.571 37.3713 290.571H274.03Z" fill="black"/>
<path d="M29.5264 220.04V132.957H119.986V176.479C119.986 179.002 118.624 181.342 116.437 182.598L40.0693 226.172C35.3675 228.852 29.5264 225.466 29.5264 220.053L29.5264 220.04Z" fill="black"/>
<path d="M21.5482 383.347C17.3746 383.347 13.6645 382.437 10.4177 380.613C7.171 378.789 4.61935 376.291 2.77161 373.118C0.920937 369.947 0 366.273 0 362.095C0 358.871 0.516191 355.923 1.54565 353.253C2.5751 350.583 4.01517 348.258 5.86291 346.276C7.71066 344.294 9.91621 342.775 12.4767 341.718C15.0371 340.661 17.8498 340.131 20.9147 340.131C23.6071 340.131 26.1177 340.634 28.4405 341.639C30.7634 342.643 32.7695 344.045 34.4618 345.843C36.1512 347.641 37.4329 349.754 38.304 352.187C39.175 354.62 39.5827 357.29 39.5329 360.198L39.4537 363.368H5.2294L3.88319 357.58H33.67L32.3237 358.927V357.024C32.2182 355.174 31.6638 353.47 30.6608 351.909C29.6577 350.352 28.3115 349.093 26.6192 348.141C24.9269 347.19 23 346.712 20.8355 346.712C17.929 346.712 15.4594 347.28 13.4269 348.416C11.3944 349.555 9.82236 351.233 8.71372 353.452C7.60507 355.671 7.05074 358.397 7.05074 361.62C7.05074 364.844 7.66959 367.371 8.91315 369.669C10.1538 371.967 11.9223 373.727 14.2217 374.942C16.5182 376.16 19.2253 376.766 22.343 376.766C24.3491 376.766 26.2761 376.435 28.1267 375.773C29.9745 375.111 32.0099 373.829 34.2272 371.926L37.7907 377C36.5237 378.218 35.0191 379.298 33.274 380.253C31.5319 381.204 29.6548 381.957 27.6487 382.513C25.6396 383.069 23.6071 383.344 21.5482 383.344V383.347Z" fill="black"/>
<path d="M47.689 382.554V341.003H54.7397L54.8981 350.202L53.4727 350.838C53.9478 349.409 54.6605 348.05 55.6108 346.754C56.5611 345.459 57.7108 344.335 59.057 343.384C60.4032 342.432 61.8697 341.68 63.4534 341.123C65.0372 340.567 66.7002 340.292 68.4453 340.292C70.7153 340.292 72.7361 340.676 74.5047 341.443C76.2732 342.21 77.7397 343.413 78.9011 345.05C80.0626 346.689 80.9337 348.803 81.5144 351.394L80.1682 350.917L80.7225 349.57C81.3032 348.302 82.0951 347.111 83.0982 346.001C84.1012 344.891 85.2773 343.914 86.6235 343.067C87.9697 342.221 89.4098 341.548 90.9408 341.044C92.4718 340.544 94.0292 340.292 95.6159 340.292C98.625 340.292 101.136 340.913 103.142 342.154C105.148 343.395 106.667 345.313 107.697 347.904C108.726 350.495 109.242 353.719 109.242 357.577V382.557H102.112V357.976C102.112 355.437 101.796 353.35 101.162 351.71C100.529 350.074 99.5636 348.856 98.2702 348.062C96.9767 347.269 95.3255 346.874 93.3194 346.874C91.6828 346.874 90.1753 347.152 88.8027 347.705C87.4301 348.261 86.2276 349.028 85.1981 350.003C84.1687 350.981 83.3621 352.105 82.7814 353.373C82.2007 354.641 81.9103 356.043 81.9103 357.574V382.554H74.7804V357.812C74.7804 355.434 74.449 353.423 73.7891 351.786C73.1291 350.147 72.1525 348.92 70.8591 348.1C69.5656 347.28 67.9936 346.871 66.1459 346.871C64.5093 346.871 63.0018 347.149 61.6292 347.702C60.2536 348.258 59.054 349.011 58.0246 349.962C56.9951 350.914 56.2033 352.038 55.6489 353.332C55.0946 354.629 54.816 355.988 54.816 357.416V382.554H47.686H47.689Z" fill="black"/>
<path d="M119.938 400V341.003H127.068L127.148 350.838L125.96 350.601C126.382 348.803 127.347 347.125 128.852 345.565C130.356 344.007 132.219 342.737 134.436 341.759C136.653 340.781 138.953 340.292 141.328 340.292C145.077 340.292 148.42 341.217 151.35 343.067C154.28 344.918 156.591 347.456 158.284 350.68C159.973 353.906 160.818 357.607 160.818 361.782C160.818 365.957 159.985 369.593 158.322 372.843C156.659 376.092 154.359 378.645 151.429 380.496C148.499 382.346 145.211 383.271 141.566 383.271C139.032 383.271 136.615 382.768 134.316 381.763C132.019 380.759 130.063 379.45 128.453 377.837C126.843 376.224 125.798 374.494 125.323 372.643L127.065 372.087V400H119.936H119.938ZM140.378 376.687C143.018 376.687 145.355 376.04 147.391 374.743C149.423 373.449 151.022 371.677 152.183 369.429C153.344 367.183 153.925 364.63 153.925 361.776C153.925 358.921 153.344 356.304 152.183 354.085C151.022 351.865 149.423 350.106 147.391 348.812C145.358 347.518 143.021 346.868 140.378 346.868C137.735 346.868 135.386 347.503 133.327 348.771C131.268 350.038 129.655 351.798 128.494 354.044C127.332 356.292 126.752 358.868 126.752 361.776C126.752 364.683 127.347 367.18 128.535 369.429C129.723 371.677 131.333 373.446 133.368 374.743C135.401 376.04 137.738 376.687 140.381 376.687H140.378Z" fill="black"/>
<path d="M169.294 382.554V323.873H176.424V382.554H169.294Z" fill="black"/>
<path d="M204.826 382.832C200.758 382.832 197.127 381.895 193.933 380.018C190.736 378.141 188.217 375.577 186.366 372.327C184.516 369.074 183.595 365.362 183.595 361.184C183.595 357.006 184.519 353.308 186.366 350.082C188.214 346.858 190.736 344.305 193.933 342.429C197.127 340.552 200.758 339.612 204.826 339.612C208.894 339.612 212.443 340.552 215.64 342.429C218.834 344.305 221.356 346.858 223.207 350.082C225.055 353.308 225.978 357.009 225.978 361.184C225.978 365.359 225.055 369.074 223.207 372.327C221.356 375.577 218.837 378.141 215.64 380.018C212.443 381.895 208.838 382.832 204.826 382.832ZM204.826 376.25C207.519 376.25 209.924 375.603 212.035 374.306C214.147 373.012 215.798 371.226 216.986 368.954C218.174 366.682 218.74 364.091 218.69 361.184C218.743 358.277 218.174 355.686 216.986 353.414C215.798 351.142 214.147 349.37 212.035 348.1C209.924 346.832 207.519 346.197 204.826 346.197C202.134 346.197 199.717 346.844 197.576 348.141C195.438 349.438 193.772 351.221 192.584 353.493C191.396 355.768 190.801 358.329 190.801 361.184C190.801 364.038 191.396 366.682 192.584 368.954C193.772 371.229 195.435 373.012 197.576 374.306C199.714 375.603 202.131 376.25 204.826 376.25Z" fill="black"/>
<path d="M238.139 383.427C236.555 383.427 235.326 382.95 234.455 381.999C233.584 381.047 233.147 379.697 233.147 377.955C233.147 376.369 233.607 375.074 234.534 374.07C235.458 373.066 236.661 372.562 238.139 372.562C239.723 372.562 240.951 373.025 241.823 373.95C242.694 374.875 243.131 376.21 243.131 377.955C243.131 379.542 242.667 380.851 241.743 381.881C240.819 382.912 239.617 383.427 238.139 383.427Z" fill="black"/>
<path d="M257.387 331.962C255.804 331.962 254.575 331.553 253.704 330.733C252.833 329.913 252.396 328.739 252.396 327.205C252.396 325.832 252.844 324.696 253.742 323.794C254.639 322.895 255.853 322.447 257.387 322.447C258.921 322.447 260.2 322.872 261.071 323.715C261.942 324.561 262.379 325.723 262.379 327.205C262.379 328.686 261.942 329.781 261.071 330.654C260.2 331.526 258.971 331.962 257.387 331.962ZM253.982 382.554V341.003H261.033V382.557H253.982V382.554Z" fill="black"/>
<path d="M289.553 383.346C286.013 383.346 282.819 382.409 279.968 380.533C277.118 378.656 274.833 376.08 273.114 372.8C271.398 369.524 270.539 365.824 270.539 361.699C270.539 357.573 271.41 353.808 273.152 350.556C274.894 347.306 277.232 344.756 280.165 342.902C283.095 341.052 286.383 340.127 290.028 340.127C292.193 340.127 294.187 340.443 296.009 341.078C297.83 341.714 299.44 342.598 300.842 343.734C302.241 344.873 303.402 346.193 304.329 347.698C305.253 349.206 305.846 350.804 306.112 352.497L304.37 351.782L304.529 340.996H311.579V382.55H304.45V372.557L306.192 371.764C305.822 373.246 305.136 374.686 304.133 376.085C303.13 377.488 301.874 378.729 300.37 379.812C298.865 380.896 297.188 381.756 295.34 382.389C293.489 383.024 291.562 383.34 289.556 383.34L289.553 383.346ZM291.216 376.765C293.856 376.765 296.193 376.118 298.229 374.821C300.261 373.527 301.86 371.741 303.021 369.469C304.183 367.197 304.763 364.606 304.763 361.699C304.763 358.791 304.183 356.215 303.021 353.966C301.86 351.721 300.261 349.961 298.229 348.694C296.196 347.426 293.859 346.79 291.216 346.79C288.574 346.79 286.33 347.426 284.324 348.694C282.315 349.961 280.731 351.721 279.57 353.966C278.408 356.215 277.827 358.791 277.827 361.699C277.827 364.606 278.408 367.197 279.57 369.469C280.731 371.744 282.315 373.527 284.324 374.821C286.33 376.118 288.626 376.765 291.216 376.765Z" fill="black"/>
</svg>
