<svg width="121" height="133" viewBox="0 0 121 133" fill="none" xmlns="http://www.w3.org/2000/svg">
<path d="M0 12.146V40.9831C0 42.9757 1.67712 44.5914 3.7485 44.5914H43.0858C43.5927 44.5914 44.0933 44.4897 44.5627 44.2982L76.8973 36.347C77.3667 36.1555 77.8673 36.0538 78.3742 36.0538H116.16C118.231 36.0538 119.908 34.4381 119.908 32.4454V3.60837C119.908 1.61569 118.231 0 116.16 0H78.3742C77.8673 0 77.3667 0.101729 76.8973 0.293218L44.5627 8.2444C44.0933 8.43589 43.5927 8.53762 43.0858 8.53762H3.7485C1.67712 8.53762 0 10.1533 0 12.146Z" fill="white"/>
<path d="M116.829 133C118.901 133 120.578 131.384 120.578 129.392V100.555C120.578 98.562 118.901 96.9463 116.829 96.9463H3.7485C1.67712 96.9463 0 98.562 0 100.555V129.392C0 131.384 1.67712 133 3.7485 133H116.829Z" fill="white"/>
<path d="M0 100.716V60.8564H43.2235V80.7773C43.2235 81.9322 42.5726 83.0034 41.5276 83.5778L5.03763 103.523C2.79103 104.749 0 103.199 0 100.722L0 100.716Z" fill="white"/>
</svg>
