<svg width="837" height="166" viewBox="0 0 837 166" fill="none" xmlns="http://www.w3.org/2000/svg">
<path d="M0 26.8796V56.9832C0 59.0634 1.67712 60.7501 3.7485 60.7501H43.0858C43.5927 60.7501 44.0933 60.6439 44.5627 60.444L76.8973 52.1436C77.3667 51.9437 77.8673 51.8375 78.3742 51.8375H116.16C118.231 51.8375 119.908 50.1509 119.908 48.0707V17.967C119.908 15.8868 118.231 14.2002 116.16 14.2002H78.3742C77.8673 14.2002 77.3667 14.3064 76.8973 14.5063L44.5627 22.8067C44.0933 23.0066 43.5927 23.1128 43.0858 23.1128H3.7485C1.67712 23.1128 0 24.7994 0 26.8796Z" fill="white"/>
<path d="M116.829 153.042C118.901 153.042 120.578 151.355 120.578 149.275V119.171C120.578 117.091 118.901 115.404 116.829 115.404H3.7485C1.67712 115.404 0 117.091 0 119.171V149.275C0 151.355 1.67712 153.042 3.7485 153.042H116.829Z" fill="white"/>
<path d="M0 119.34V77.7295H43.2235V98.5253C43.2235 99.7309 42.5726 100.849 41.5276 101.449L5.03763 122.27C2.79103 123.55 0 121.932 0 119.346L0 119.34Z" fill="white"/>
<path d="M217.677 129.941C208.772 129.941 200.855 127.999 193.928 124.107C187 120.215 181.556 114.886 177.613 108.115C173.665 101.349 171.7 93.5096 171.7 84.5954C171.7 77.7176 172.801 71.427 174.998 65.7299C177.194 60.0327 180.267 55.0727 184.209 50.8436C188.152 46.6145 192.858 43.3724 198.321 41.1172C203.784 38.8621 209.785 37.7314 216.325 37.7314C222.07 37.7314 227.426 38.8059 232.383 40.9486C237.339 43.0912 241.619 46.0835 245.23 49.9191C248.835 53.7546 251.57 58.2649 253.428 63.456C255.287 68.6471 256.157 74.3443 256.05 80.5474L255.881 87.3127H182.858L179.985 74.9627H243.541L240.668 77.8363V73.7758C240.443 69.8278 239.26 66.1921 237.12 62.8626C234.98 59.5392 232.107 56.8531 228.497 54.8228C224.886 52.7926 220.774 51.7744 216.156 51.7744C209.954 51.7744 204.685 52.9863 200.348 55.4101C196.012 57.8401 192.657 61.4195 190.292 66.1546C187.927 70.8898 186.744 76.7056 186.744 83.5834C186.744 90.4612 188.064 95.8522 190.718 100.756C193.365 105.66 197.138 109.414 202.044 112.007C206.944 114.605 212.72 115.898 219.373 115.898C223.653 115.898 227.764 115.192 231.713 113.781C235.656 112.369 239.999 109.633 244.73 105.572L252.333 116.398C249.63 118.997 246.419 121.302 242.696 123.338C238.979 125.369 234.974 126.974 230.693 128.161C226.406 129.348 222.07 129.935 217.677 129.935V129.941Z" fill="white"/>
<path d="M273.453 128.249V39.5932H288.497L288.835 59.2208L285.794 60.5764C286.807 57.5279 288.328 54.6294 290.356 51.862C292.383 49.1009 294.836 46.7021 297.709 44.6719C300.581 42.6416 303.71 41.0362 307.089 39.8493C310.469 38.6624 314.017 38.0752 317.74 38.0752C322.584 38.0752 326.896 38.8935 330.669 40.5302C334.443 42.1669 337.572 44.7343 340.05 48.2263C342.528 51.7246 344.387 56.2348 345.626 61.7633L342.753 60.745L343.936 57.8715C345.175 55.1666 346.865 52.6241 349.005 50.2566C351.145 47.889 353.655 45.8026 356.527 43.9972C359.399 42.1919 362.472 40.7551 365.739 39.6806C369.005 38.6124 372.328 38.0752 375.714 38.0752C382.134 38.0752 387.491 39.3995 391.772 42.0482C396.052 44.6969 399.294 48.7886 401.49 54.317C403.687 59.8455 404.788 66.7233 404.788 74.9566V128.255H389.575V75.8062C389.575 70.3902 388.899 65.9362 387.547 62.4379C386.196 58.9459 384.137 56.3472 381.377 54.6543C378.617 52.9615 375.094 52.1181 370.814 52.1181C367.322 52.1181 364.105 52.7116 361.177 53.8922C358.248 55.0791 355.682 56.7158 353.486 58.796C351.289 60.8825 349.568 63.2813 348.329 65.9861C347.09 68.691 346.47 71.6833 346.47 74.9504V128.249H331.257V75.4564C331.257 70.3839 330.55 66.0923 329.142 62.6004C327.734 59.1021 325.65 56.4847 322.891 54.7356C320.131 52.9864 316.777 52.1119 312.834 52.1119C309.342 52.1119 306.126 52.7053 303.197 53.886C300.262 55.0729 297.702 56.6783 295.506 58.7086C293.309 60.7388 291.62 63.1376 290.437 65.8987C289.254 68.666 288.66 71.5646 288.66 74.6131V128.249H273.447H273.453Z" fill="white"/>
<path d="M427.61 165.474V39.5932H442.823L442.992 60.5764L440.458 60.0704C441.359 56.2348 443.418 52.6554 446.628 49.3258C449.838 46.0025 453.812 43.2913 458.543 41.2049C463.274 39.1184 468.18 38.0752 473.249 38.0752C481.247 38.0752 488.381 40.0492 494.633 43.9972C500.884 47.9452 505.816 53.3613 509.426 60.239C513.031 67.1231 514.833 75.0191 514.833 83.9271C514.833 92.8351 513.056 100.594 509.508 107.528C505.959 114.462 501.053 119.909 494.802 123.857C488.55 127.805 481.535 129.779 473.756 129.779C468.349 129.779 463.193 128.705 458.287 126.562C453.387 124.419 449.213 121.627 445.777 118.185C442.341 114.743 440.114 111.051 439.1 107.103L442.817 105.916V165.474H427.604H427.61ZM471.222 115.73C476.854 115.73 481.841 114.349 486.184 111.582C490.521 108.821 493.932 105.041 496.41 100.244C498.888 95.4526 500.127 90.0053 500.127 83.9146C500.127 77.8239 498.888 72.2393 496.41 67.5041C493.932 62.769 490.521 59.0147 486.184 56.2535C481.848 53.4924 476.86 52.1056 471.222 52.1056C465.583 52.1056 460.571 53.4612 456.178 56.1661C451.785 58.871 448.343 62.6253 445.865 67.4167C443.386 72.2143 442.147 77.7115 442.147 83.9146C442.147 90.1178 443.418 95.4463 445.952 100.244C448.487 105.041 451.922 108.815 456.265 111.582C460.602 114.349 465.59 115.73 471.228 115.73H471.222Z" fill="white"/>
<path d="M532.919 128.249V3.04297H548.132V128.249H532.919Z" fill="white"/>
<path d="M608.733 128.842C600.054 128.842 592.306 126.843 585.491 122.839C578.67 118.835 573.295 113.362 569.346 106.428C565.397 99.4881 563.432 91.5671 563.432 82.6528C563.432 73.7386 565.403 65.8488 569.346 58.9647C573.288 52.0869 578.67 46.6397 585.491 42.6355C592.306 38.6312 600.054 36.626 608.733 36.626C617.413 36.626 624.985 38.6312 631.806 42.6355C638.621 46.6397 644.003 52.0869 647.952 58.9647C651.894 65.8488 653.865 73.7448 653.865 82.6528C653.865 91.5608 651.894 99.4881 647.952 106.428C644.003 113.362 638.627 118.835 631.806 122.839C624.985 126.843 617.294 128.842 608.733 128.842ZM608.733 114.799C614.478 114.799 619.61 113.419 624.115 110.651C628.621 107.89 632.144 104.08 634.679 99.232C637.213 94.3844 638.421 88.8559 638.314 82.6528C638.427 76.4497 637.213 70.9212 634.679 66.0737C632.144 61.2261 628.621 57.4468 624.115 54.7356C619.61 52.0307 614.478 50.6752 608.733 50.6752C602.988 50.6752 597.832 52.0557 593.264 54.8231C588.702 57.5904 585.147 61.3948 582.613 66.2423C580.078 71.0961 578.808 76.5621 578.808 82.6528C578.808 88.7435 580.078 94.3844 582.613 99.232C585.147 104.086 588.695 107.89 593.264 110.651C597.826 113.419 602.982 114.799 608.733 114.799Z" fill="white"/>
<path d="M679.812 130.111C676.432 130.111 673.81 129.093 671.952 127.062C670.093 125.032 669.161 122.152 669.161 118.435C669.161 115.05 670.143 112.289 672.121 110.146C674.092 108.003 676.658 106.929 679.812 106.929C683.191 106.929 685.813 107.916 687.672 109.89C689.53 111.864 690.463 114.712 690.463 118.435C690.463 121.821 689.474 124.614 687.503 126.812C685.531 129.011 682.966 130.111 679.812 130.111Z" fill="white"/>
<path d="M720.882 20.3023C717.503 20.3023 714.881 19.4277 713.022 17.6786C711.164 15.9295 710.231 13.4245 710.231 10.1511C710.231 7.22137 711.189 4.79759 713.104 2.87355C715.019 0.955769 717.609 0 720.882 0C724.155 0 726.884 0.905794 728.742 2.70489C730.601 4.51023 731.533 6.99023 731.533 10.1511C731.533 13.312 730.601 15.6484 728.742 17.5099C726.884 19.3715 724.262 20.3023 720.882 20.3023ZM713.617 128.248V39.5926H728.661V128.254H713.617V128.248Z" fill="white"/>
<path d="M789.513 129.941C781.96 129.941 775.145 127.942 769.062 123.937C762.979 119.933 758.104 114.436 754.437 107.44C750.776 100.449 748.943 92.5533 748.943 83.7514C748.943 74.9496 750.801 66.9162 754.519 59.9759C758.236 53.0419 763.223 47.6009 769.481 43.6466C775.733 39.6986 782.748 37.7246 790.527 37.7246C795.145 37.7246 799.4 38.3993 803.287 39.7548C807.173 41.1104 810.608 42.997 813.6 45.4207C816.585 47.8508 819.063 50.6681 821.04 53.879C823.012 57.0961 824.276 60.5069 824.845 64.1176L821.128 62.5933L821.466 39.5799H836.51V128.242H821.297V106.921L825.014 105.228C824.226 108.389 822.761 111.462 820.621 114.448C818.481 117.441 815.802 120.089 812.592 122.401C809.382 124.712 805.802 126.549 801.86 127.898C797.911 129.254 793.8 129.928 789.519 129.928L789.513 129.941ZM793.061 115.898C798.693 115.898 803.681 114.517 808.024 111.75C812.361 108.989 815.771 105.178 818.249 100.331C820.728 95.483 821.967 89.9546 821.967 83.7514C821.967 77.5483 820.728 72.0511 818.249 67.2535C815.771 62.4622 812.361 58.7078 808.024 56.0029C803.687 53.298 798.7 51.9425 793.061 51.9425C787.423 51.9425 782.636 53.298 778.355 56.0029C774.068 58.7078 770.689 62.4622 768.211 67.2535C765.733 72.0511 764.494 77.5483 764.494 83.7514C764.494 89.9546 765.733 95.483 768.211 100.331C770.689 105.184 774.068 108.989 778.355 111.75C782.636 114.517 787.535 115.898 793.061 115.898Z" fill="white"/>
</svg>
